<?xml version="1.0" encoding="utf-8"?>
<!-- Generator: Adobe Illustrator 16.0.0, SVG Export Plug-In . SVG Version: 6.00 Build 0)  -->
<!DOCTYPE svg PUBLIC "-//W3C//DTD SVG 1.1//EN" "http://www.w3.org/Graphics/SVG/1.1/DTD/svg11.dtd">
<svg version="1.1" id="Layer_1" xmlns="http://www.w3.org/2000/svg" xmlns:xlink="http://www.w3.org/1999/xlink" x="0px" y="0px"
	 width="4369.581px" height="1158.025px" viewBox="0 0 4369.581 1158.025" style="enable-background:new 0 0 4369.581 1158.025;"
	 xml:space="preserve">
<path style="fill:none;stroke:#000000;stroke-width:40;stroke-linecap:round;stroke-miterlimit:10;" d="M-61,839.119"/>
<g>
	<path style="fill:none;stroke:#000000;stroke-width:40;stroke-linecap:round;stroke-miterlimit:10;" d="M92.854,722.008"/>
	<path style="fill:none;stroke:#000000;stroke-width:40;stroke-linecap:round;stroke-miterlimit:10;" d="M78.592,667.126"/>
	<path style="fill:none;stroke:#000000;stroke-width:40;stroke-linecap:round;stroke-miterlimit:10;" d="M101.39,747.009"/>
	<path style="fill:none;stroke:#000000;stroke-width:40;stroke-linecap:round;stroke-miterlimit:10;" d="M78.592,667.126"/>
	<path style="fill:#8DC63F;" d="M659.52,130.351"/>
	<line style="fill:#C0DFAB;" x1="494.033" y1="157.996" x2="593.222" y2="135.368"/>
	<path style="fill:#C0DFAB;" d="M806.388,163.981"/>
	<path style="fill:none;stroke:#00A651;stroke-width:40;stroke-miterlimit:10;" d="M806.388,163.981"/>
	<path style="fill:none;stroke:#000000;stroke-width:40;stroke-linecap:round;stroke-miterlimit:10;" d="M81.979,310.08"/>
	<path style="fill:none;stroke:#000000;stroke-width:40;stroke-miterlimit:10;" d="M229.879,337.829"/>
	<path style="fill:none;stroke:#000000;stroke-width:40;stroke-miterlimit:10;" d="M253.067,298.359"/>
	<path style="fill:none;stroke:#000000;stroke-width:40;stroke-miterlimit:10;" d="M220.481,356.973"/>
	<path style="fill:none;stroke:#000000;stroke-width:40;stroke-miterlimit:10;" d="M253.067,298.359"/>
	<g>
		<path style="fill:none;stroke:#AA75B2;stroke-width:50;stroke-miterlimit:10;" d="M88.498,562.295
			c0.114-3.749,0.267-7.502,0.457-11.265c8.542-168.869,91.838-316.242,216.231-411.697"/>
		<path style="fill:none;stroke:#AA75B2;stroke-width:50;stroke-miterlimit:10;" d="M171.553,871.276
			c-49.794-80.037-79.65-173.455-83.002-272.989"/>
		<path style="fill:none;stroke:#5468B0;stroke-width:50;stroke-miterlimit:10;" d="M568.868,1128.162
			c-144.026-19.082-269.508-92.983-356.112-199.21"/>
		<path style="fill:none;stroke:#5468B0;stroke-width:50;stroke-miterlimit:10;" d="M889.857,1074.708
			c-82.615,41.364-176.732,62.598-275.595,57.597c-2.746-0.138-5.485-0.297-8.22-0.476"/>
		<path style="fill:none;stroke:#27AAE1;stroke-width:50;stroke-miterlimit:10;" d="M981.67,141.108
			c-47.003-36.498-100.127-65.64-157.721-85.602"/>
		<path style="fill:none;stroke:#27AAE1;stroke-width:50;stroke-miterlimit:10;" d="M1195.539,606.997"/>
		<path style="fill:none;stroke:#27AAE1;stroke-width:50;stroke-miterlimit:10;" d="M1171.515,743.148"/>
		<path style="fill:none;stroke:#27AAE1;stroke-width:50;stroke-miterlimit:10;" d="M375.437,93.407
			c87.102-47.965,188.189-73.078,294.795-67.687c40.924,2.07,80.585,8.531,118.552,18.903"/>
	</g>
	<g>
		<g>
			<path style="fill:none;stroke:#8DC63F;stroke-width:50;stroke-miterlimit:10;" d="M932.672,243.977
				c-95.799-82.734-225.922-124.492-360.816-103.638c-0.777,0.12-1.554,0.243-2.329,0.366"/>
			<path style="fill:none;stroke:#8DC63F;stroke-width:50;stroke-miterlimit:10;" d="M332.188,257.991
				c55.131-52.449,124.104-91.324,202.244-110.247"/>
			<path style="fill:none;stroke:#F7941E;stroke-width:50;stroke-miterlimit:10;" d="M283.906,852.794
				c-43.588-57.308-73.929-125.99-85.703-202.146c-0.625-4.05-1.195-8.095-1.708-12.135"/>
			<path style="fill:none;stroke:#F7941E;stroke-width:50;stroke-miterlimit:10;" d="M293.325,299.994
				c-67.429,82.895-105.099,189.537-99.972,302.124"/>
		</g>
		<g>
			<path style="fill:none;stroke:#EF4136;stroke-width:50;stroke-miterlimit:10;" d="M937.044,916.164
				c-0.82,0.721-1.645,1.438-2.468,2.152c-49.108,42.496-106.311,73.14-167.127,90.896c-1.682,0.491-3.365,0.973-5.052,1.443"/>
			<path style="fill:none;stroke:#EF4136;stroke-width:50;stroke-miterlimit:10;" d="M318.413,888.874
				c25.259,26.415,54.189,50.141,86.609,70.392c90.037,56.239,192.341,76.529,290.125,64.754c2.166-0.261,4.33-0.537,6.492-0.83
				c5.716-0.773,11.414-1.655,17.092-2.647c5.687-0.993,11.353-2.095,16.995-3.306c0.712-0.152,1.424-0.307,2.135-0.463"/>
		</g>
	</g>
	<g>
		<path style="fill:#434343;" d="M576.627,734.885v-333.5h175.5c63.5,0,96,40.5,96,85c0,41.5-26,70-57.5,76.5c36,5.5,64,40,64,81.5
			c0,50.5-33,90.5-97,90.5H576.627z M775.627,498.885c0-20.5-15-35-39-35h-89v70h89
			C760.627,533.885,775.627,520.385,775.627,498.885z M782.127,634.385c0-21-15-38-42.5-38h-92v76h92
			C766.127,672.385,782.127,658.385,782.127,634.385z"/>
		<path style="fill:#434343;" d="M891.124,613.885c0-70,52-126.5,125-126.5c72.5,0,121,54,121,132.5v15h-179.5
			c4.5,29.5,28.5,54,69.5,54c20.5,0,48.5-8.5,64-23.5l28.5,42c-24,22-62,33.5-99.5,33.5
			C946.624,740.885,891.124,691.385,891.124,613.885z M1016.124,539.385c-39.5,0-56.5,27.5-59,51.5h119
			C1074.124,567.885,1058.124,539.385,1016.124,539.385z"/>
		<path style="fill:#434343;" d="M1328.121,734.885v-25.5c-16.5,20-45,31.5-76.5,31.5c-38.5,0-83.5-26-83.5-80c0-57,45-78,83.5-78
			c32.5,0,60.5,10.5,76.5,29.5v-30.5c0-24.5-21-40.5-53-40.5c-25.5,0-49.5,10-69.5,28.5l-25-44.5c29.5-26.5,67.5-38,105.5-38
			c55.5,0,106,22,106,91.5v156H1328.121z M1328.121,676.885v-30c-10.5-14-30.5-21.5-51-21.5c-25,0-45.5,13.5-45.5,36.5
			s20.5,36,45.5,36C1297.621,697.885,1317.621,690.885,1328.121,676.885z"/>
		<path style="fill:#434343;" d="M1439.121,613.885c0-74,54-126.5,128-126.5c49.5,0,79.5,21.5,95.5,43.5l-41.5,39
			c-11.5-17-29-26-51-26c-38.5,0-65.5,28-65.5,70c0,42,27,70.5,65.5,70.5c22,0,39.5-10,51-26.5l41.5,39c-16,22-46,44-95.5,44
			C1493.121,740.885,1439.121,688.385,1439.121,613.885z"/>
		<path style="fill:#434343;" d="M1688.617,613.885c0-68.5,48-126.5,127.5-126.5c80,0,128,58,128,126.5c0,68.5-48,127-128,127
			C1736.617,740.885,1688.617,682.385,1688.617,613.885z M1878.117,613.885c0-37.5-22-70-62-70c-39.5,0-61.5,32.5-61.5,70
			c0,38,22,70.5,61.5,70.5C1856.117,684.385,1878.117,651.885,1878.117,613.885z"/>
		<path style="fill:#434343;" d="M2154.615,734.885v-146c0-33.5-17.5-45-44.5-45c-25,0-44,14-55,28v163h-63.5v-241.5h63.5v31
			c15.5-18,45.5-37,84.5-37c53.5,0,79,30,79,77v170.5H2154.615z"/>
		<path style="fill:#434343;" d="M2641.107,734.885l-159-217.5v217.5h-71v-333.5h73l154.5,209.5v-209.5h71v333.5H2641.107z"/>
		<path style="fill:#434343;" d="M2758.602,613.885c0-70,52-126.5,125-126.5c72.5,0,121,54,121,132.5v15h-179.5
			c4.5,29.5,28.5,54,69.5,54c20.5,0,48.5-8.5,64-23.5l28.5,42c-24,22-62,33.5-99.5,33.5
			C2814.102,740.885,2758.602,691.385,2758.602,613.885z M2883.602,539.385c-39.5,0-56.5,27.5-59,51.5h119
			C2941.602,567.885,2925.602,539.385,2883.602,539.385z"/>
		<path style="fill:#434343;" d="M3063.599,674.385v-125.5h-40v-55.5h40v-66h63.5v66h49v55.5h-49v108.5c0,15.5,8,27,22,27
			c9.5,0,18.5-3.5,22-7.5l13.5,48.5c-9.5,8.5-26.5,15.5-53,15.5C3087.099,740.885,3063.599,717.885,3063.599,674.385z"/>
		<path style="fill:#434343;" d="M3431.598,734.885l-51-164.5l-51,164.5h-68l-73.5-241.5h66l45,162.5l53-162.5h56.5l53,162.5
			l45-162.5h66.5l-73.5,241.5H3431.598z"/>
		<path style="fill:#434343;" d="M3589.092,613.885c0-68.5,48-126.5,127.5-126.5c80,0,128,58,128,126.5c0,68.5-48,127-128,127
			C3637.092,740.885,3589.092,682.385,3589.092,613.885z M3778.592,613.885c0-37.5-22-70-62-70c-39.5,0-61.5,32.5-61.5,70
			c0,38,22,70.5,61.5,70.5C3756.592,684.385,3778.592,651.885,3778.592,613.885z"/>
		<path style="fill:#434343;" d="M3892.09,734.885v-241.5h63.5v32.5c17.5-21,47-38.5,77-38.5v62c-4.5-1-10-1.5-17.5-1.5
			c-21,0-49,12-59.5,27.5v159.5H3892.09z"/>
		<path style="fill:#434343;" d="M4228.583,734.885l-64-93l-29,31v62h-63.5v-333.5h63.5v199.5l91.5-107.5h78l-95.5,109.5l98.5,132
			H4228.583z"/>
	</g>
</g>
<g>
</g>
<g>
</g>
<g>
</g>
<g>
</g>
<g>
</g>
<g>
</g>
</svg>
