<?xml version="1.0" encoding="UTF-8" standalone="no"?> <!-- Created with Vectornator for iOS (http://vectornator.io/) --><!DOCTYPE svg PUBLIC "-//W3C//DTD SVG 1.1//EN" "http://www.w3.org/Graphics/SVG/1.1/DTD/svg11.dtd">
<svg height="100%" style="fill-rule:nonzero;clip-rule:evenodd;stroke-linecap:round;stroke-linejoin:round;" xmlns:xlink="http://www.w3.org/1999/xlink" xmlns="http://www.w3.org/2000/svg" xml:space="preserve" width="100%" xmlns:vectornator="http://vectornator.io" version="1.1" viewBox="0 0 700 700">
<metadata>
<vectornator:setting key="DimensionsVisible" value="1"/>
<vectornator:setting key="PencilOnly" value="1"/>
<vectornator:setting key="SnapToPoints" value="0"/>
<vectornator:setting key="OutlineMode" value="0"/>
<vectornator:setting key="CMYKEnabledKey" value="0"/>
<vectornator:setting key="RulersVisible" value="1"/>
<vectornator:setting key="SnapToEdges" value="0"/>
<vectornator:setting key="GuidesVisible" value="1"/>
<vectornator:setting key="DisplayWhiteBackground" value="0"/>
<vectornator:setting key="doHistoryDisabled" value="0"/>
<vectornator:setting key="SnapToGuides" value="1"/>
<vectornator:setting key="TimeLapseWatermarkDisabled" value="0"/>
<vectornator:setting key="Units" value="Pixels"/>
<vectornator:setting key="DynamicGuides" value="0"/>
<vectornator:setting key="IsolateActiveLayer" value="0"/>
<vectornator:setting key="SnapToGrid" value="0"/>
</metadata>
<defs/>
<g id="Capa 1" vectornator:layerName="Capa 1">
<g opacity="1">
<path stroke="#87bee3" stroke-width="5" d="M66.1556+350C66.1556+193.237+193.237+66.1556+350+66.1556C386.513+66.1556+421.415+73.0499+453.477+85.6076C482.667+97.0406+509.502+113.168+533.054+133.061C594.696+185.128+633.844+262.992+633.844+350C633.844+506.763+506.763+633.844+350+633.844C193.237+633.844+66.1556+506.763+66.1556+350Z" fill="#87bee3" stroke-linecap="round" opacity="1" stroke-linejoin="round"/>
<path stroke="#ffffff" stroke-opacity="0.995652" stroke-width="30" d="M349.704+199.106L179.453+199.106" fill="#ffffff" stroke-linecap="round" opacity="1" stroke-linejoin="round"/>
<path stroke="#ffffff" stroke-opacity="0.995652" stroke-width="30" d="M350.297+501.381L520.547+500.625" fill="#ffffff" stroke-linecap="round" opacity="1" stroke-linejoin="round"/>
<path stroke="#ffffff" stroke-opacity="0.995652" stroke-width="30" d="M349.704+139.355L240.379+139.355" fill="#ffffff" stroke-linecap="round" opacity="1" stroke-linejoin="round"/>
<path stroke="#ffffff" stroke-opacity="0.995652" stroke-width="30" d="M350.563+561.132L459.887+560.646" fill="#ffffff" stroke-linecap="round" opacity="1" stroke-linejoin="round"/>
<path stroke="#ffffff" stroke-opacity="0.995652" stroke-width="30" d="M349.704+260.95L211.282+260.95" fill="#ffffff" stroke-linecap="round" opacity="1" stroke-linejoin="round"/>
<path stroke="#ffffff" stroke-opacity="0.995652" stroke-width="30" d="M350.023+439.539L488.444+438.924" fill="#ffffff" stroke-linecap="round" opacity="1" stroke-linejoin="round"/>
<path stroke="#ffffff" stroke-opacity="0.995652" stroke-width="5.93145" d="M320.126+350.961C320.126+334.327+333.697+320.842+350.437+320.842C367.177+320.842+380.747+334.327+380.747+350.961C380.747+367.595+367.177+381.079+350.437+381.079C333.697+381.079+320.126+367.595+320.126+350.961Z" fill="#ffffff" stroke-linecap="round" opacity="1" stroke-linejoin="round"/>
<path stroke="#ffffff" stroke-opacity="0.995652" stroke-width="20.0101" d="M195.379+260.95C195.379+252.732+202.084+246.07+210.354+246.07C218.624+246.07+225.328+252.732+225.328+260.95C225.328+269.167+218.624+275.829+210.354+275.829C202.084+275.829+195.379+269.167+195.379+260.95Z" fill="#ffffff" stroke-linecap="round" opacity="1" stroke-linejoin="round"/>
<path stroke="#ffffff" stroke-opacity="0.995652" stroke-width="20.0101" d="M504.346+438.853C504.382+447.071+497.708+453.762+489.438+453.799C481.168+453.836+474.434+447.204+474.397+438.986C474.361+430.768+481.035+424.077+489.306+424.04C497.576+424.003+504.309+430.635+504.346+438.853Z" fill="#ffffff" stroke-linecap="round" opacity="1" stroke-linejoin="round"/>
<path stroke="#ffffff" stroke-opacity="0.995652" stroke-width="20.0101" d="M225.143+139.355C225.143+131.137+231.847+124.475+240.117+124.475C248.387+124.475+255.091+131.137+255.091+139.355C255.091+147.573+248.387+154.235+240.117+154.235C231.847+154.235+225.143+147.573+225.143+139.355Z" fill="#ffffff" stroke-linecap="round" opacity="1" stroke-linejoin="round"/>
<path stroke="#ffffff" stroke-opacity="0.995652" stroke-width="20.0101" d="M475.123+560.578C475.16+568.796+468.485+575.488+460.215+575.524C451.945+575.561+445.211+568.929+445.175+560.711C445.138+552.494+451.813+545.802+460.083+545.765C468.353+545.728+475.087+552.361+475.123+560.578Z" fill="#ffffff" stroke-linecap="round" opacity="1" stroke-linejoin="round"/>
<path stroke="#ffffff" stroke-opacity="0.995652" stroke-width="20.0101" d="M164.254+199.106C164.254+190.889+170.958+184.227+179.229+184.227C187.499+184.227+194.203+190.889+194.203+199.106C194.203+207.324+187.499+213.986+179.229+213.986C170.958+213.986+164.254+207.324+164.254+199.106Z" fill="#ffffff" stroke-linecap="round" opacity="1" stroke-linejoin="round"/>
<path stroke="#ffffff" stroke-opacity="0.995652" stroke-width="20.0101" d="M535.746+500.557C535.782+508.775+529.108+515.467+520.838+515.503C512.567+515.54+505.834+508.908+505.797+500.69C505.761+492.472+512.435+485.781+520.705+485.744C528.975+485.707+535.709+492.339+535.746+500.557Z" fill="#ffffff" stroke-linecap="round" opacity="1" stroke-linejoin="round"/>
</g>
</g>
</svg>
